<?xml version="1.0" standalone="no"?><!DOCTYPE svg PUBLIC "-//W3C//DTD SVG 1.1//EN" "http://www.w3.org/Graphics/SVG/1.1/DTD/svg11.dtd"><svg t="1728409465449" class="icon" viewBox="0 0 1024 1024" version="1.1" xmlns="http://www.w3.org/2000/svg" p-id="2443" xmlns:xlink="http://www.w3.org/1999/xlink" width="16" height="16"><path d="M113.524386 638.506773c-36.898436 0-66.679689-28.987184-66.679689-64.747032V155.193255c0-59.59261 49.784825-107.913726 111.133484-107.913726h244.489517c36.899774 0 66.679689 28.985846 66.679689 64.746362v461.73385c0 35.760516-29.779915 64.747032-66.679689 64.747032H113.524386z m795.712962-168.919203H620.290022c-36.894422 0-66.681027-29.851495-66.681026-66.679689V113.959218c0-36.828863 29.786605-66.679689 66.681026-66.679689h244.494869c61.343976 0 111.133484 49.765425 111.133484 111.133484v244.489516c0 36.833546-29.786605 66.685041-66.681027 66.685041m-751.259167 506.765636c-61.348659 0-111.133484-49.334608-111.133484-110.16682v-77.120321c0-36.509764 29.781253-66.097684 66.679689-66.097684h288.943312c36.899774 0 66.679689 29.588589 66.679689 66.097684v121.184105c0 36.509764-29.779915 66.103036-66.679689 66.103036H157.978181z m706.80671 0H620.290022c-36.894422 0-66.681027-29.851495-66.681026-66.681027V620.724854c0-36.828194 29.786605-66.681027 66.681026-66.681027h288.947326c36.894422 0 66.681027 29.852833 66.681027 66.681027v244.494868c0 61.368059-49.789508 111.133484-111.133484 111.133484" fill="#2c2c2c" p-id="2444"></path></svg>