<?xml version="1.0" standalone="no"?><!DOCTYPE svg PUBLIC "-//W3C//DTD SVG 1.1//EN" "http://www.w3.org/Graphics/SVG/1.1/DTD/svg11.dtd"><svg t="1725519338626" class="icon" viewBox="0 0 1024 1024" version="1.1" xmlns="http://www.w3.org/2000/svg" p-id="2392" width="16" height="16" xmlns:xlink="http://www.w3.org/1999/xlink"><path d="M382.301659 491.669854l82.419512 214.790244h-34.965854l-19.980488-54.946342h-92.409756l-19.980488 54.946342h-32.468292l82.419512-214.790244h34.965854z m17.482926 129.87317l-34.965853-97.404878-37.463415 97.404878h72.429268zM574.613854 491.669854c49.95122 0 77.42439 22.478049 77.42439 64.936585 0 44.956098-24.97561 64.936585-77.42439 64.936585h-54.946342v82.419513h-32.468292v-214.790244h87.414634z m-54.946342 102.4h52.448781c14.985366 0 27.473171-2.497561 34.965853-9.990244 7.492683-4.995122 9.990244-14.985366 9.990244-29.970732 0-12.487805-4.995122-22.478049-12.487805-27.473171-7.492683-4.995122-19.980488-9.990244-34.965853-9.990244h-52.448781v77.424391zM714.477268 491.669854v214.790244h-32.468292v-214.790244h32.468292z" fill="#5E4EFF" p-id="2393"></path><path d="M751.940683 876.294244h-499.512195c-134.868293 0-244.760976-109.892683-244.760976-244.760976 0-99.902439 62.439024-192.312195 152.35122-227.278048 27.473171-149.853659 162.341463-262.243902 317.190244-262.243903 129.873171 0 252.253659 82.419512 297.209756 202.302439 124.878049 22.478049 219.785366 134.868293 219.785366 267.239024 0 134.868293-102.4 249.756098-242.263415 264.741464 2.497561 0 0 0 0 0z m-274.731707-696.819512c-142.360976 0-262.243902 104.897561-282.224391 244.760975 0 7.492683-4.995122 12.487805-12.487805 14.985366-79.921951 27.473171-137.365854 107.395122-137.365853 194.809756 0 112.390244 92.409756 204.8 204.8 204.8h499.512195c117.385366-14.985366 207.297561-114.887805 207.297561-229.775609 0-117.385366-84.917073-217.287805-197.307317-232.273171-7.492683 0-12.487805-4.995122-14.985366-12.487805-37.463415-109.892683-147.356098-184.819512-267.239024-184.819512z" fill="#5E4EFF" p-id="2394"></path></svg>