<?xml version="1.0" standalone="no"?><!DOCTYPE svg PUBLIC "-//W3C//DTD SVG 1.1//EN" "http://www.w3.org/Graphics/SVG/1.1/DTD/svg11.dtd"><svg t="1716910425458" class="icon" viewBox="0 0 1024 1024" version="1.1" xmlns="http://www.w3.org/2000/svg" p-id="3687" xmlns:xlink="http://www.w3.org/1999/xlink" width="16" height="16"><path d="M0 0m184.32 0l655.36 0q184.32 0 184.32 184.32l0 655.36q0 184.32-184.32 184.32l-655.36 0q-184.32 0-184.32-184.32l0-655.36q0-184.32 184.32-184.32Z" fill="#FFFFFF" p-id="3688"></path><path d="M266.24 512h276.48v163.84h-276.48z" fill="#2D5B3A" p-id="3689"></path><path d="M542.72 512h276.48v163.84h-276.48zM266.24 348.16h276.48v163.84h-276.48z" fill="#387A47" p-id="3690"></path><path d="M542.72 348.16h276.48v163.84h-276.48z" fill="#4FA16B" p-id="3691"></path><path d="M266.24 675.84h552.96v122.88a40.96 40.96 0 0 1-40.96 40.96h-471.04a40.96 40.96 0 0 1-40.96-40.96v-122.88z" fill="#2D5B3A" p-id="3692"></path><path d="M307.2 184.32h235.52v163.84h-276.48v-122.88a40.96 40.96 0 0 1 40.96-40.96z" fill="#4FA16B" p-id="3693"></path><path d="M81.92 327.68m40.96 0l286.72 0q40.96 0 40.96 40.96l0 286.72q0 40.96-40.96 40.96l-286.72 0q-40.96 0-40.96-40.96l0-286.72q0-40.96 40.96-40.96Z" fill="#357541" p-id="3694"></path><path d="M542.72 184.32h235.52a40.96 40.96 0 0 1 40.96 40.96v122.88h-276.48v-163.84z" fill="#63C187" p-id="3695"></path><path d="M174.17216 410.89024l63.93856 100.05504-64.29696 102.16448h45.7728l44.032-70.77888h1.44384l44.36992 70.77888h48.128l-65.44384-102.16448 66.56-100.05504h-47.43168l-42.60864 72.76544h-1.82272l-42.82368-72.76544z" fill="#FFFFFF" p-id="3696"></path></svg>