<?xml version="1.0" standalone="no"?><!DOCTYPE svg PUBLIC "-//W3C//DTD SVG 1.1//EN" "http://www.w3.org/Graphics/SVG/1.1/DTD/svg11.dtd"><svg t="1710074286175" class="icon" viewBox="0 0 1113 1024" version="1.1" xmlns="http://www.w3.org/2000/svg" p-id="3797" xmlns:xlink="http://www.w3.org/1999/xlink" width="217.3828125" height="200"><path d="M0 0m64.852075 0l951.16377 0q64.852075 0 64.852075 64.852075l0 670.138111q0 64.852075-64.852075 64.852075l-951.16377 0q-64.852075 0-64.852075-64.852075l0-670.138111q0-64.852075 64.852075-64.852075Z" fill="#9AB3FF" p-id="3798"></path><path d="M64.852075 43.234717a21.617358 21.617358 0 0 0-21.617358 21.617358v670.138111a21.617358 21.617358 0 0 0 21.617358 21.617358h951.16377a21.617358 21.617358 0 0 0 21.617358-21.617358v-670.138111a21.617358 21.617358 0 0 0-21.617358-21.617358h-951.16377m0-43.234717h951.16377a64.852075 64.852075 0 0 1 64.852075 64.852075v670.138111a64.852075 64.852075 0 0 1-64.852075 64.852075h-951.16377a64.852075 64.852075 0 0 1-64.852075-64.852075v-670.138111a64.852075 64.852075 0 0 1 64.852075-64.852075z" fill="#262B3A" p-id="3799"></path><path d="M0 951.16377m21.617358 0l1037.633204 0q21.617358 0 21.617358 21.617358l0 0q0 21.617358-21.617358 21.617358l-1037.633204 0q-21.617358 0-21.617358-21.617358l0 0q0-21.617358 21.617358-21.617358Z" fill="#262B3A" p-id="3800"></path><path d="M289.672603 314.705504a64.852075 64.852075 0 0 1 112.604819 0l61.177125 107.070776a64.852075 64.852075 0 0 1-56.399688 97.040322h-122.354249a64.852075 64.852075 0 0 1-56.205132-97.018705z" fill="#FFFFFF" p-id="3801"></path><path d="M345.877734 325.276392a21.228246 21.228246 0 0 0-18.763867 10.808679l-61.220359 107.070776a21.617358 21.617358 0 0 0 18.807102 32.426038h122.354249a21.617358 21.617358 0 0 0 18.763867-32.426038l-61.177124-106.984307a21.228246 21.228246 0 0 0-18.763868-10.895148m0-43.234717a64.225172 64.225172 0 0 1 56.205132 32.685446l61.177125 107.070776a64.852075 64.852075 0 0 1-56.205132 97.018705h-122.354249a64.852075 64.852075 0 0 1-56.205132-97.018705l61.177125-107.092393a64.225172 64.225172 0 0 1 56.205131-32.663829z" fill="#262B3A" p-id="3802"></path><path d="M691.755469 389.112451m-129.704151 0a129.70415 129.70415 0 1 0 259.408301 0 129.70415 129.70415 0 1 0-259.408301 0Z" fill="#396AFC" p-id="3803"></path><path d="M691.755469 302.643018a86.469434 86.469434 0 1 0 86.469433 86.469433 86.469434 86.469434 0 0 0-86.469433-86.469433m0-43.234717a129.70415 129.70415 0 1 1-129.704151 129.70415 129.70415 129.70415 0 0 1 129.704151-129.70415z" fill="#262B3A" p-id="3804"></path></svg>