<?xml version="1.0" standalone="no"?><!DOCTYPE svg PUBLIC "-//W3C//DTD SVG 1.1//EN" "http://www.w3.org/Graphics/SVG/1.1/DTD/svg11.dtd"><svg t="1695559560676" class="icon" viewBox="0 0 1024 1024" version="1.1" xmlns="http://www.w3.org/2000/svg" p-id="17204" xmlns:xlink="http://www.w3.org/1999/xlink" width="128" height="128"><path d="M524.530735 285.780071c-74.076666 0-178.009812 32.921076-214.318075 47.624352L310.212661 95.274172c0-40.518901-21.205995-95.282661-71.445018-95.257194C161.787674-1.086616 143.510449 54.755271 143.510449 95.274172l0 500.081167c-0.713092 9.151346-2.393951 80.21435 0 95.257194-3.548481 182.789225 183.298577 333.387445 357.199621 333.387445 190.573812 0 381.011797-130.521286 381.011797-381.011797C881.730356 450.011928 715.104547 285.780071 524.530735 285.780071zM500.718559 857.306255c-109.773708 0-188.875974-99.17071-188.875974-210.311177 0-111.140467 88.983683-201.236234 198.748901-201.236234 109.765218 0 204.453637 86.088869 204.453637 197.229336C715.036634 786.226273 610.483777 857.306255 500.718559 857.306255z" p-id="17205" fill="#4e8ffe"></path></svg>