<?xml version="1.0" standalone="no"?><!DOCTYPE svg PUBLIC "-//W3C//DTD SVG 1.1//EN" "http://www.w3.org/Graphics/SVG/1.1/DTD/svg11.dtd"><svg t="1725736232509" class="icon" viewBox="0 0 1024 1024" version="1.1" xmlns="http://www.w3.org/2000/svg" p-id="2372" xmlns:xlink="http://www.w3.org/1999/xlink" width="16" height="16"><path d="M955.733333 409.6h-82.602666a373.418667 373.418667 0 0 0-33.450667-80.554667l58.709333-55.978666a68.266667 68.266667 0 0 0 0-96.256l-48.469333-48.469334a68.266667 68.266667 0 0 0-96.256 0l-58.709333 58.709334A372.736 372.736 0 0 0 614.4 150.869333V68.266667a68.266667 68.266667 0 0 0-68.266667-68.266667H477.866667a68.266667 68.266667 0 0 0-68.266667 68.266667v82.602666a372.736 372.736 0 0 0-80.554667 33.450667L273.066667 125.610667a68.266667 68.266667 0 0 0-96.256 0l-48.469334 48.469333A68.266667 68.266667 0 0 0 125.610667 273.066667l58.709333 58.709333A373.418667 373.418667 0 0 0 150.869333 409.6H68.266667a68.266667 68.266667 0 0 0-68.266667 68.266667v68.266666a68.266667 68.266667 0 0 0 68.266667 68.266667h82.602666a372.736 372.736 0 0 0 33.450667 80.554667l-58.709333 55.978666a68.266667 68.266667 0 0 0 0 96.256l48.469333 48.469334a68.266667 68.266667 0 0 0 96.256 0l58.709333-58.709334a372.736 372.736 0 0 0 80.554667 36.181334V955.733333a68.266667 68.266667 0 0 0 68.266667 68.266667h68.266666a68.266667 68.266667 0 0 0 68.266667-68.266667v-82.602666a372.736 372.736 0 0 0 80.554667-33.450667l58.709333 58.709333a68.266667 68.266667 0 0 0 96.256 0l48.469333-48.469333a68.266667 68.266667 0 0 0 0-96.256l-58.709333-58.709333A372.736 372.736 0 0 0 873.130667 614.4H955.733333a68.266667 68.266667 0 0 0 68.266667-68.266667V477.866667a68.266667 68.266667 0 0 0-68.266667-68.266667z m0 136.533333h-136.533333l-14.336 49.834667a305.152 305.152 0 0 1-27.306667 68.266667l-25.258666 45.056 36.864 36.181333 58.709333 58.709333-48.469333 48.469334-58.709334-58.709334-36.181333-36.864-45.056 25.258667a305.152 305.152 0 0 1-68.266667 27.306667L546.133333 819.2v136.533333H477.866667v-136.533333l-49.834667-14.336a305.152 305.152 0 0 1-68.266667-27.306667l-45.056-25.258666-36.181333 36.864-58.709333 58.709333-48.469334-48.469333 58.709334-58.709334 36.864-36.181333-25.258667-45.056a305.152 305.152 0 0 1-27.306667-68.266667L204.8 546.133333H68.266667V477.866667h136.533333l14.336-49.834667a305.834667 305.834667 0 0 1 27.306667-68.266667l25.258666-45.056-36.181333-36.181333-58.709333-58.709333 48.469333-48.469334 58.709333 58.709334 36.181334 36.864 45.056-25.258667a305.152 305.152 0 0 1 68.266666-27.306667L477.866667 204.8V68.266667h68.266666v136.533333l49.834667 14.336a305.152 305.152 0 0 1 68.266667 27.306667l45.056 25.258666 36.181333-36.864 58.709333-58.709333 48.469334 48.469333-58.709334 58.709334-36.181333 36.181333 25.258667 45.056a305.834667 305.834667 0 0 1 27.306666 68.266667L819.2 477.866667h136.533333z" fill="#bfbfbf" p-id="2373"></path><path d="M512 273.066667A238.933333 238.933333 0 1 0 750.933333 512 238.933333 238.933333 0 0 0 512 273.066667z m0 409.6A170.666667 170.666667 0 1 1 682.666667 512 170.666667 170.666667 0 0 1 512 682.666667z" fill="#bfbfbf" p-id="2374"></path><path d="M512 512m-102.4 0a102.4 102.4 0 1 0 204.8 0 102.4 102.4 0 1 0-204.8 0Z" fill="#bfbfbf" p-id="2375"></path></svg>